<!-- Generated by IcoMoon.io -->
<svg version="1.1" xmlns="http://www.w3.org/2000/svg" width="109" height="32" viewBox="0 0 109 32">
<path fill="none" stroke-linejoin="miter" stroke-linecap="butt" stroke-miterlimit="4" stroke-width="2.5263" stroke="#000" d="M19.368 3.368h-8.421c-4.651 0-8.421 3.77-8.421 8.421v8.421c0 4.651 3.77 8.421 8.421 8.421h8.421c4.651 0 8.421-3.77 8.421-8.421v-8.421c0-4.651-3.77-8.421-8.421-8.421z"></path>
<path fill="none" stroke-linejoin="miter" stroke-linecap="butt" stroke-miterlimit="4" stroke-width="2.5263" stroke="#000" d="M15.158 20.211c2.325 0 4.211-1.885 4.211-4.211s-1.885-4.211-4.211-4.211c-2.325 0-4.211 1.885-4.211 4.211s1.885 4.211 4.211 4.211z"></path>
<path d="M50.728 16.042c1.011 0.354 1.802 0.909 2.375 1.667 0.573 0.741 0.859 1.642 0.859 2.703 0 1.549-0.623 2.745-1.869 3.587s-3.048 1.263-5.406 1.263h-9.549v-17.684h9.044c2.257 0 3.975 0.421 5.154 1.263 1.179 0.825 1.768 1.945 1.768 3.36 0 0.842-0.211 1.6-0.632 2.274-0.404 0.657-0.985 1.179-1.743 1.566zM42.088 11.192v3.411h3.436c1.684 0 2.526-0.573 2.526-1.718 0-1.128-0.842-1.693-2.526-1.693h-3.436zM46.282 21.651c1.752 0 2.627-0.598 2.627-1.794s-0.876-1.794-2.627-1.794h-4.194v3.587h4.194zM61.656 25.491c-1.684 0-2.998-0.429-3.941-1.288-0.926-0.876-1.389-2.122-1.389-3.739v-13.945h4.8v13.693c0 0.505 0.126 0.893 0.379 1.162 0.269 0.269 0.64 0.404 1.112 0.404 0.387 0 0.749-0.084 1.086-0.253l0.202 3.613c-0.724 0.236-1.474 0.354-2.248 0.354zM72.251 25.491c-1.465 0-2.787-0.303-3.966-0.909s-2.105-1.448-2.779-2.526c-0.657-1.078-0.985-2.299-0.985-3.663 0-1.347 0.328-2.56 0.985-3.638 0.674-1.078 1.592-1.912 2.754-2.501 1.179-0.606 2.509-0.909 3.992-0.909s2.813 0.303 3.992 0.909c1.179 0.589 2.097 1.423 2.754 2.501 0.657 1.061 0.985 2.274 0.985 3.638s-0.328 2.585-0.985 3.663c-0.657 1.078-1.575 1.92-2.754 2.526s-2.509 0.909-3.992 0.909zM72.251 21.676c0.842 0 1.533-0.286 2.072-0.859 0.539-0.589 0.808-1.398 0.808-2.425 0-1.011-0.269-1.802-0.808-2.375s-1.229-0.859-2.072-0.859c-0.842 0-1.533 0.286-2.072 0.859s-0.808 1.364-0.808 2.375c0 1.027 0.269 1.836 0.808 2.425 0.539 0.573 1.229 0.859 2.072 0.859zM96.934 11.571v11.192c0 2.543-0.691 4.446-2.072 5.709-1.381 1.28-3.368 1.92-5.962 1.92-1.347 0-2.611-0.152-3.789-0.455s-2.181-0.749-3.006-1.339l1.743-3.36c0.556 0.455 1.255 0.808 2.097 1.061 0.859 0.269 1.701 0.404 2.526 0.404 1.263 0 2.189-0.278 2.779-0.834s0.884-1.381 0.884-2.476v-0.455c-0.926 1.078-2.282 1.617-4.067 1.617-1.213 0-2.333-0.269-3.36-0.808-1.027-0.556-1.844-1.331-2.45-2.324-0.606-1.011-0.909-2.173-0.909-3.486 0-1.297 0.303-2.442 0.909-3.436 0.606-1.011 1.423-1.785 2.45-2.324 1.027-0.556 2.147-0.834 3.36-0.834 1.954 0 3.385 0.632 4.295 1.895v-1.667h4.573zM89.203 20.741c0.859 0 1.566-0.261 2.122-0.783 0.573-0.522 0.859-1.196 0.859-2.021s-0.278-1.491-0.834-1.996c-0.556-0.522-1.272-0.783-2.147-0.783s-1.6 0.261-2.173 0.783c-0.556 0.505-0.834 1.171-0.834 1.996s0.286 1.499 0.859 2.021c0.573 0.522 1.288 0.783 2.147 0.783z"></path>
</svg>
