<svg aria-hidden="true" style="position: absolute; width: 0; height: 0; overflow: hidden;" version="1.1" xmlns="http://www.w3.org/2000/svg" xmlns:xlink="http://www.w3.org/1999/xlink">
<defs>
<symbol id="icon-logoIcon" viewBox="0 0 109 32">
<path stroke-linejoin="miter" stroke-linecap="butt" stroke-miterlimit="4" stroke-width="2.5263" d="M19.368 3.368h-8.421c-4.651 0-8.421 3.77-8.421 8.421v8.421c0 4.651 3.77 8.421 8.421 8.421h8.421c4.651 0 8.421-3.77 8.421-8.421v-8.421c0-4.651-3.77-8.421-8.421-8.421z"></path>
<path stroke-linejoin="miter" stroke-linecap="butt" stroke-miterlimit="4" stroke-width="2.5263" d="M15.158 20.211c2.325 0 4.211-1.885 4.211-4.211s-1.885-4.211-4.211-4.211c-2.325 0-4.211 1.885-4.211 4.211s1.885 4.211 4.211 4.211z"></path>
<path d="M50.728 16.042c1.011 0.354 1.802 0.909 2.375 1.667 0.573 0.741 0.859 1.642 0.859 2.703 0 1.549-0.623 2.745-1.869 3.587s-3.048 1.263-5.406 1.263h-9.549v-17.684h9.044c2.257 0 3.975 0.421 5.154 1.263 1.179 0.825 1.768 1.945 1.768 3.36 0 0.842-0.211 1.6-0.632 2.274-0.404 0.657-0.985 1.179-1.743 1.566zM42.088 11.192v3.411h3.436c1.684 0 2.526-0.573 2.526-1.718 0-1.128-0.842-1.693-2.526-1.693h-3.436zM46.282 21.651c1.752 0 2.627-0.598 2.627-1.794s-0.876-1.794-2.627-1.794h-4.194v3.587h4.194zM61.656 25.491c-1.684 0-2.998-0.429-3.941-1.288-0.926-0.876-1.389-2.122-1.389-3.739v-13.945h4.8v13.693c0 0.505 0.126 0.893 0.379 1.162 0.269 0.269 0.64 0.404 1.112 0.404 0.387 0 0.749-0.084 1.086-0.253l0.202 3.613c-0.724 0.236-1.474 0.354-2.248 0.354zM72.251 25.491c-1.465 0-2.787-0.303-3.966-0.909s-2.105-1.448-2.779-2.526c-0.657-1.078-0.985-2.299-0.985-3.663 0-1.347 0.328-2.56 0.985-3.638 0.674-1.078 1.592-1.912 2.754-2.501 1.179-0.606 2.509-0.909 3.992-0.909s2.813 0.303 3.992 0.909c1.179 0.589 2.097 1.423 2.754 2.501 0.657 1.061 0.985 2.274 0.985 3.638s-0.328 2.585-0.985 3.663c-0.657 1.078-1.575 1.92-2.754 2.526s-2.509 0.909-3.992 0.909zM72.251 21.676c0.842 0 1.533-0.286 2.072-0.859 0.539-0.589 0.808-1.398 0.808-2.425 0-1.011-0.269-1.802-0.808-2.375s-1.229-0.859-2.072-0.859c-0.842 0-1.533 0.286-2.072 0.859s-0.808 1.364-0.808 2.375c0 1.027 0.269 1.836 0.808 2.425 0.539 0.573 1.229 0.859 2.072 0.859zM96.934 11.571v11.192c0 2.543-0.691 4.446-2.072 5.709-1.381 1.28-3.368 1.92-5.962 1.92-1.347 0-2.611-0.152-3.789-0.455s-2.181-0.749-3.006-1.339l1.743-3.36c0.556 0.455 1.255 0.808 2.097 1.061 0.859 0.269 1.701 0.404 2.526 0.404 1.263 0 2.189-0.278 2.779-0.834s0.884-1.381 0.884-2.476v-0.455c-0.926 1.078-2.282 1.617-4.067 1.617-1.213 0-2.333-0.269-3.36-0.808-1.027-0.556-1.844-1.331-2.45-2.324-0.606-1.011-0.909-2.173-0.909-3.486 0-1.297 0.303-2.442 0.909-3.436 0.606-1.011 1.423-1.785 2.45-2.324 1.027-0.556 2.147-0.834 3.36-0.834 1.954 0 3.385 0.632 4.295 1.895v-1.667h4.573zM89.203 20.741c0.859 0 1.566-0.261 2.122-0.783 0.573-0.522 0.859-1.196 0.859-2.021s-0.278-1.491-0.834-1.996c-0.556-0.522-1.272-0.783-2.147-0.783s-1.6 0.261-2.173 0.783c-0.556 0.505-0.834 1.171-0.834 1.996s0.286 1.499 0.859 2.021c0.573 0.522 1.288 0.783 2.147 0.783z"></path>
</symbol>
<symbol id="icon-home" viewBox="0 0 32 32">
<path d="M32 18.451l-16-12.42-16 12.42v-5.064l16-12.42 16 12.42zM28 18v12h-8v-8h-8v8h-8v-12l12-9z"></path>
</symbol>
<symbol id="icon-text" viewBox="0 0 32 32">
<path d="M27 0c2.761 0 5 2.239 5 5 0 1.126-0.372 2.164-1 3l-2 2-7-7 2-2c0.836-0.628 1.874-1 3-1zM2 23l-2 9 9-2 18.5-18.5-7-7-18.5 18.5zM22.362 11.362l-14 14-1.724-1.724 14-14 1.724 1.724z"></path>
</symbol>
<symbol id="icon-image" viewBox="0 0 32 32">
<path d="M29.996 4c0.001 0.001 0.003 0.002 0.004 0.004v23.993c-0.001 0.001-0.002 0.003-0.004 0.004h-27.993c-0.001-0.001-0.003-0.002-0.004-0.004v-23.993c0.001-0.001 0.002-0.003 0.004-0.004h27.993zM30 2h-28c-1.1 0-2 0.9-2 2v24c0 1.1 0.9 2 2 2h28c1.1 0 2-0.9 2-2v-24c0-1.1-0.9-2-2-2v0z"></path>
<path d="M26 9c0 1.657-1.343 3-3 3s-3-1.343-3-3 1.343-3 3-3 3 1.343 3 3z"></path>
<path d="M28 26h-24v-4l7-12 8 10h2l7-6z"></path>
</symbol>
<symbol id="icon-camera" viewBox="0 0 32 32">
<path d="M9.5 19c0 3.59 2.91 6.5 6.5 6.5s6.5-2.91 6.5-6.5-2.91-6.5-6.5-6.5-6.5 2.91-6.5 6.5zM30 8h-7c-0.5-2-1-4-3-4h-8c-2 0-2.5 2-3 4h-7c-1.1 0-2 0.9-2 2v18c0 1.1 0.9 2 2 2h28c1.1 0 2-0.9 2-2v-18c0-1.1-0.9-2-2-2zM16 27.875c-4.902 0-8.875-3.973-8.875-8.875s3.973-8.875 8.875-8.875c4.902 0 8.875 3.973 8.875 8.875s-3.973 8.875-8.875 8.875zM30 14h-4v-2h4v2z"></path>
</symbol>
<symbol id="icon-user" viewBox="0 0 32 32">
<path d="M18 22.082v-1.649c2.203-1.241 4-4.337 4-7.432 0-4.971 0-9-6-9s-6 4.029-6 9c0 3.096 1.797 6.191 4 7.432v1.649c-6.784 0.555-12 3.888-12 7.918h28c0-4.030-5.216-7.364-12-7.918z"></path>
</symbol>
<symbol id="icon-search" viewBox="0 0 32 32">
<path d="M31.008 27.231l-7.58-6.447c-0.784-0.705-1.622-1.029-2.299-0.998 1.789-2.096 2.87-4.815 2.87-7.787 0-6.627-5.373-12-12-12s-12 5.373-12 12 5.373 12 12 12c2.972 0 5.691-1.081 7.787-2.87-0.031 0.677 0.293 1.515 0.998 2.299l6.447 7.58c1.104 1.226 2.907 1.33 4.007 0.23s0.997-2.903-0.23-4.007zM12 20c-4.418 0-8-3.582-8-8s3.582-8 8-8 8 3.582 8 8-3.582 8-8 8z"></path>
</symbol>
<symbol id="icon-filter" viewBox="0 0 32 32">
<path d="M14 4v-0.5c0-0.825-0.675-1.5-1.5-1.5h-5c-0.825 0-1.5 0.675-1.5 1.5v0.5h-6v4h6v0.5c0 0.825 0.675 1.5 1.5 1.5h5c0.825 0 1.5-0.675 1.5-1.5v-0.5h18v-4h-18zM8 8v-4h4v4h-4zM26 13.5c0-0.825-0.675-1.5-1.5-1.5h-5c-0.825 0-1.5 0.675-1.5 1.5v0.5h-18v4h18v0.5c0 0.825 0.675 1.5 1.5 1.5h5c0.825 0 1.5-0.675 1.5-1.5v-0.5h6v-4h-6v-0.5zM20 18v-4h4v4h-4zM14 23.5c0-0.825-0.675-1.5-1.5-1.5h-5c-0.825 0-1.5 0.675-1.5 1.5v0.5h-6v4h6v0.5c0 0.825 0.675 1.5 1.5 1.5h5c0.825 0 1.5-0.675 1.5-1.5v-0.5h18v-4h-18v-0.5zM8 28v-4h4v4h-4z"></path>
</symbol>
<symbol id="icon-eye" viewBox="0 0 32 32">
<path d="M16 6c-6.979 0-13.028 4.064-16 10 2.972 5.936 9.021 10 16 10s13.027-4.064 16-10c-2.972-5.936-9.021-10-16-10zM23.889 11.303c1.88 1.199 3.473 2.805 4.67 4.697-1.197 1.891-2.79 3.498-4.67 4.697-2.362 1.507-5.090 2.303-7.889 2.303s-5.527-0.796-7.889-2.303c-1.88-1.199-3.473-2.805-4.67-4.697 1.197-1.891 2.79-3.498 4.67-4.697 0.122-0.078 0.246-0.154 0.371-0.228-0.311 0.854-0.482 1.776-0.482 2.737 0 4.418 3.582 8 8 8s8-3.582 8-8c0-0.962-0.17-1.883-0.482-2.737 0.124 0.074 0.248 0.15 0.371 0.228v0zM16 13c0 1.657-1.343 3-3 3s-3-1.343-3-3 1.343-3 3-3 3 1.343 3 3z"></path>
</symbol>
<symbol id="icon-heart" viewBox="0 0 32 32">
<path d="M23.6 2c-3.363 0-6.258 2.736-7.599 5.594-1.342-2.858-4.237-5.594-7.601-5.594-4.637 0-8.4 3.764-8.4 8.401 0 9.433 9.516 11.906 16.001 21.232 6.13-9.268 15.999-12.1 15.999-21.232 0-4.637-3.763-8.401-8.4-8.401z"></path>
</symbol>
<symbol id="icon-plus" viewBox="0 0 32 32">
<path d="M31 12h-11v-11c0-0.552-0.448-1-1-1h-6c-0.552 0-1 0.448-1 1v11h-11c-0.552 0-1 0.448-1 1v6c0 0.552 0.448 1 1 1h11v11c0 0.552 0.448 1 1 1h6c0.552 0 1-0.448 1-1v-11h11c0.552 0 1-0.448 1-1v-6c0-0.552-0.448-1-1-1z"></path>
</symbol>
<symbol id="icon-close" viewBox="0 0 32 32">
<path d="M31.708 25.708c-0-0-0-0-0-0l-9.708-9.708 9.708-9.708c0-0 0-0 0-0 0.105-0.105 0.18-0.227 0.229-0.357 0.133-0.356 0.057-0.771-0.229-1.057l-4.586-4.586c-0.286-0.286-0.702-0.361-1.057-0.229-0.13 0.048-0.252 0.124-0.357 0.228 0 0-0 0-0 0l-9.708 9.708-9.708-9.708c-0-0-0-0-0-0-0.105-0.104-0.227-0.18-0.357-0.228-0.356-0.133-0.771-0.057-1.057 0.229l-4.586 4.586c-0.286 0.286-0.361 0.702-0.229 1.057 0.049 0.13 0.124 0.252 0.229 0.357 0 0 0 0 0 0l9.708 9.708-9.708 9.708c-0 0-0 0-0 0-0.104 0.105-0.18 0.227-0.229 0.357-0.133 0.355-0.057 0.771 0.229 1.057l4.586 4.586c0.286 0.286 0.702 0.361 1.057 0.229 0.13-0.049 0.252-0.124 0.357-0.229 0-0 0-0 0-0l9.708-9.708 9.708 9.708c0 0 0 0 0 0 0.105 0.105 0.227 0.18 0.357 0.229 0.356 0.133 0.771 0.057 1.057-0.229l4.586-4.586c0.286-0.286 0.362-0.702 0.229-1.057-0.049-0.13-0.124-0.252-0.229-0.357z"></path>
</symbol>
<symbol id="icon-ctrl" viewBox="0 0 32 32">
<path d="M23 14c-0.278 0-0.555-0.116-0.753-0.341l-6.247-7.14-6.247 7.14c-0.364 0.416-0.995 0.458-1.411 0.094s-0.458-0.995-0.094-1.411l7-8c0.19-0.217 0.464-0.341 0.753-0.341s0.563 0.125 0.753 0.341l7 8c0.364 0.416 0.322 1.047-0.094 1.411-0.19 0.166-0.424 0.247-0.658 0.247z"></path>
</symbol>
</defs>
</svg>
